<mxfile host="app.diagrams.net" agent="Mozilla/5.0 (Windows NT 10.0; Win64; x64) AppleWebKit/537.36 (KHTML, like Gecko) Chrome/134.0.0.0 Safari/537.36" version="26.1.0">
  <diagram name="Page-1" id="nQkI8m8ni--jbyRCbZtI">
    <mxGraphModel dx="1050" dy="538" grid="1" gridSize="10" guides="1" tooltips="1" connect="1" arrows="1" fold="1" page="1" pageScale="1" pageWidth="850" pageHeight="1100" math="0" shadow="0">
      <root>
        <mxCell id="0" />
        <mxCell id="1" parent="0" />
        <mxCell id="OHtOWuJ2Fl4cZPmt4c_e-1" value="" style="rounded=1;whiteSpace=wrap;html=1;" vertex="1" parent="1">
          <mxGeometry x="130" y="100" width="580" height="370" as="geometry" />
        </mxCell>
        <mxCell id="OHtOWuJ2Fl4cZPmt4c_e-2" value="传统NPC" style="text;html=1;align=center;verticalAlign=middle;whiteSpace=wrap;rounded=0;" vertex="1" parent="1">
          <mxGeometry x="160" y="160" width="110" height="40" as="geometry" />
        </mxCell>
        <mxCell id="OHtOWuJ2Fl4cZPmt4c_e-3" value="大模型代理的NPC" style="text;html=1;align=center;verticalAlign=middle;whiteSpace=wrap;rounded=0;" vertex="1" parent="1">
          <mxGeometry x="160" y="240" width="100" height="40" as="geometry" />
        </mxCell>
        <mxCell id="OHtOWuJ2Fl4cZPmt4c_e-4" value="AI+MemoryRepository代理的NPC" style="text;html=1;align=center;verticalAlign=middle;whiteSpace=wrap;rounded=0;" vertex="1" parent="1">
          <mxGeometry x="160" y="340" width="110" height="50" as="geometry" />
        </mxCell>
        <mxCell id="OHtOWuJ2Fl4cZPmt4c_e-5" value="脚本+行为树" style="rounded=0;whiteSpace=wrap;html=1;" vertex="1" parent="1">
          <mxGeometry x="340" y="150" width="120" height="60" as="geometry" />
        </mxCell>
        <mxCell id="OHtOWuJ2Fl4cZPmt4c_e-6" value="大模型代理NPC" style="rounded=0;whiteSpace=wrap;html=1;" vertex="1" parent="1">
          <mxGeometry x="340" y="230" width="120" height="60" as="geometry" />
        </mxCell>
        <mxCell id="OHtOWuJ2Fl4cZPmt4c_e-7" value="大模型代理NPC的对话，MemoryRepository代理记忆系统" style="rounded=0;whiteSpace=wrap;html=1;" vertex="1" parent="1">
          <mxGeometry x="340" y="335" width="140" height="55" as="geometry" />
        </mxCell>
        <mxCell id="OHtOWuJ2Fl4cZPmt4c_e-8" value="技术" style="text;html=1;align=center;verticalAlign=middle;whiteSpace=wrap;rounded=0;" vertex="1" parent="1">
          <mxGeometry x="370" y="110" width="60" height="30" as="geometry" />
        </mxCell>
        <mxCell id="OHtOWuJ2Fl4cZPmt4c_e-9" value="效果" style="text;html=1;align=center;verticalAlign=middle;whiteSpace=wrap;rounded=0;" vertex="1" parent="1">
          <mxGeometry x="570" y="110" width="60" height="30" as="geometry" />
        </mxCell>
        <mxCell id="OHtOWuJ2Fl4cZPmt4c_e-10" value="NPC回复单调可预测" style="rounded=0;whiteSpace=wrap;html=1;" vertex="1" parent="1">
          <mxGeometry x="540" y="150" width="120" height="60" as="geometry" />
        </mxCell>
        <mxCell id="OHtOWuJ2Fl4cZPmt4c_e-11" value="解决了NPC回复单调可预测的问题，但是无法进行长期交互，类人化表现不够" style="rounded=0;whiteSpace=wrap;html=1;" vertex="1" parent="1">
          <mxGeometry x="540" y="230" width="120" height="60" as="geometry" />
        </mxCell>
        <mxCell id="OHtOWuJ2Fl4cZPmt4c_e-12" value="NPC能够进行长期的类人化的交互" style="rounded=0;whiteSpace=wrap;html=1;" vertex="1" parent="1">
          <mxGeometry x="540" y="335" width="120" height="65" as="geometry" />
        </mxCell>
      </root>
    </mxGraphModel>
  </diagram>
</mxfile>
